<svg width="20" height="20" viewBox="0 0 20 20" fill="none" xmlns="http://www.w3.org/2000/svg">
<path d="M13.3333 4.99948C13.0018 4.99948 12.6839 5.13118 12.4494 5.3656C12.215 5.60002 12.0833 5.91796 12.0833 6.24948C12.0833 6.58101 12.215 6.89895 12.4494 7.13337C12.6839 7.36779 13.0018 7.49948 13.3333 7.49948C13.6649 7.49948 13.9828 7.36779 14.2172 7.13337C14.4516 6.89895 14.5833 6.58101 14.5833 6.24948C14.5833 5.91796 14.4516 5.60002 14.2172 5.3656C13.9828 5.13118 13.6649 4.99948 13.3333 4.99948ZM11.2917 5.83282C11.3873 5.36186 11.6428 4.93845 12.0149 4.63433C12.387 4.3302 12.8528 4.16406 13.3333 4.16406C13.8139 4.16406 14.2797 4.3302 14.6518 4.63433C15.0239 4.93845 15.2794 5.36186 15.375 5.83282H17.5V6.66615H15.375C15.2794 7.1371 15.0239 7.56052 14.6518 7.86464C14.2797 8.16877 13.8139 8.33491 13.3333 8.33491C12.8528 8.33491 12.387 8.16877 12.0149 7.86464C11.6428 7.56052 11.3873 7.1371 11.2917 6.66615H2.5V5.83282H11.2917ZM6.66667 12.4995C6.33515 12.4995 6.0172 12.6312 5.78278 12.8656C5.54836 13.1 5.41667 13.418 5.41667 13.7495C5.41667 14.081 5.54836 14.3989 5.78278 14.6334C6.0172 14.8678 6.33515 14.9995 6.66667 14.9995C6.99819 14.9995 7.31613 14.8678 7.55055 14.6334C7.78497 14.3989 7.91667 14.081 7.91667 13.7495C7.91667 13.418 7.78497 13.1 7.55055 12.8656C7.31613 12.6312 6.99819 12.4995 6.66667 12.4995ZM4.625 13.3328C4.72063 12.8619 4.97614 12.4385 5.34823 12.1343C5.72031 11.8302 6.1861 11.6641 6.66667 11.6641C7.14723 11.6641 7.61302 11.8302 7.98511 12.1343C8.3572 12.4385 8.6127 12.8619 8.70833 13.3328H17.5V14.1662H8.70833C8.6127 14.6371 8.3572 15.0605 7.98511 15.3646C7.61302 15.6688 7.14723 15.8349 6.66667 15.8349C6.1861 15.8349 5.72031 15.6688 5.34823 15.3646C4.97614 15.0605 4.72063 14.6371 4.625 14.1662H2.5V13.3328H4.625Z" fill="white"/>
</svg>
