<svg width="106" height="18" viewBox="0 0 106 18" fill="none" xmlns="http://www.w3.org/2000/svg">
<path d="M96.5 0L98.9514 5.80357L105.535 6.21885L100.466 10.2209L102.084 16.2812L96.5 12.951L90.916 16.2812L92.5336 10.2209L87.465 6.21885L94.0486 5.80357L96.5 0Z" fill="#151515"/>
<path d="M74.5 0L76.9514 5.80357L83.535 6.21885L78.4664 10.2209L80.084 16.2812L74.5 12.951L68.916 16.2812L70.5336 10.2209L65.465 6.21885L72.0486 5.80357L74.5 0Z" fill="#151515"/>
<path d="M31.5 0L33.9514 5.80357L40.535 6.21885L35.4664 10.2209L37.084 16.2812L31.5 12.951L25.916 16.2812L27.5336 10.2209L22.465 6.21885L29.0486 5.80357L31.5 0Z" fill="#151515"/>
<path d="M53 0L55.3223 5.80357L61.5595 6.21885L56.7576 10.2209L58.2901 16.2812L53 12.951L47.7099 16.2812L49.2424 10.2209L44.4405 6.21885L50.6777 5.80357L53 0Z" fill="#151515"/>
<path d="M9.5 0L11.9514 5.80357L18.535 6.21885L13.4664 10.2209L15.084 16.2812L9.5 12.951L3.91604 16.2812L5.53362 10.2209L0.464963 6.21885L7.04864 5.80357L9.5 0Z" fill="#151515"/>
</svg>
